<svg width="877" height="184" viewBox="0 0 877 184" fill="none" xmlns="http://www.w3.org/2000/svg">
<path d="M105.526 73.7528H85.3381C84.7623 70.4422 83.7008 67.5095 82.1534 64.9545C80.6061 62.3636 78.6809 60.1686 76.3778 58.3693C74.0748 56.5701 71.4479 55.2206 68.4972 54.321C65.5824 53.3854 62.4337 52.9176 59.0511 52.9176C53.0417 52.9176 47.7159 54.429 43.0739 57.4517C38.4318 60.4384 34.7973 64.8286 32.1705 70.6222C29.5436 76.3797 28.2301 83.4148 28.2301 91.7273C28.2301 100.184 29.5436 107.309 32.1705 113.102C34.8333 118.86 38.4678 123.214 43.0739 126.165C47.7159 129.08 53.0237 130.537 58.9972 130.537C62.3078 130.537 65.4025 130.105 68.2812 129.241C71.196 128.342 73.8049 127.028 76.108 125.301C78.447 123.574 80.4081 121.451 81.9915 118.932C83.6108 116.413 84.7263 113.534 85.3381 110.295L105.526 110.403C104.77 115.657 103.133 120.587 100.614 125.193C98.1307 129.799 94.8741 133.866 90.8438 137.392C86.8135 140.883 82.0994 143.617 76.7017 145.597C71.304 147.54 65.3125 148.511 58.7273 148.511C49.0114 148.511 40.339 146.262 32.7102 141.764C25.0814 137.266 19.072 130.771 14.6818 122.278C10.2917 113.786 8.09659 103.602 8.09659 91.7273C8.09659 79.8163 10.3097 69.6326 14.7358 61.1761C19.1619 52.6837 25.1894 46.1884 32.8182 41.6903C40.447 37.1922 49.0833 34.9432 58.7273 34.9432C64.8807 34.9432 70.6023 35.8068 75.892 37.5341C81.1818 39.2614 85.8958 41.7983 90.0341 45.1449C94.1724 48.4555 97.5729 52.5218 100.236 57.3438C102.935 62.1297 104.698 67.5994 105.526 73.7528ZM151.565 148.619C143.469 148.619 136.452 146.838 130.514 143.276C124.577 139.713 119.971 134.729 116.696 128.324C113.458 121.919 111.838 114.434 111.838 105.869C111.838 97.3049 113.458 89.8021 116.696 83.3608C119.971 76.9195 124.577 71.9176 130.514 68.3551C136.452 64.7926 143.469 63.0114 151.565 63.0114C159.662 63.0114 166.679 64.7926 172.617 68.3551C178.554 71.9176 183.142 76.9195 186.381 83.3608C189.655 89.8021 191.293 97.3049 191.293 105.869C191.293 114.434 189.655 121.919 186.381 128.324C183.142 134.729 178.554 139.713 172.617 143.276C166.679 146.838 159.662 148.619 151.565 148.619ZM151.673 132.966C156.064 132.966 159.734 131.76 162.685 129.349C165.636 126.902 167.831 123.628 169.27 119.526C170.745 115.423 171.483 110.853 171.483 105.815C171.483 100.741 170.745 96.1534 169.27 92.0511C167.831 87.9129 165.636 84.6203 162.685 82.1733C159.734 79.7263 156.064 78.5028 151.673 78.5028C147.175 78.5028 143.433 79.7263 140.446 82.1733C137.495 84.6203 135.282 87.9129 133.807 92.0511C132.368 96.1534 131.648 100.741 131.648 105.815C131.648 110.853 132.368 115.423 133.807 119.526C135.282 123.628 137.495 126.902 140.446 129.349C143.433 131.76 147.175 132.966 151.673 132.966ZM219.817 98.4205V147H200.277V64.0909H218.953V78.179H219.925C221.832 73.5369 224.873 69.8485 229.047 67.1136C233.257 64.3788 238.457 63.0114 244.647 63.0114C250.368 63.0114 255.352 64.2348 259.598 66.6818C263.88 69.1288 267.191 72.6733 269.53 77.3153C271.905 81.9574 273.075 87.589 273.039 94.2102V147H253.499V97.233C253.499 91.6913 252.059 87.3551 249.181 84.2244C246.338 81.0937 242.398 79.5284 237.36 79.5284C233.941 79.5284 230.9 80.2841 228.238 81.7955C225.611 83.2708 223.541 85.4119 222.03 88.2188C220.555 91.0256 219.817 94.4261 219.817 98.4205ZM350.831 86.0057L333.018 87.9489C332.514 86.1496 331.633 84.4583 330.373 82.875C329.15 81.2917 327.495 80.0142 325.407 79.0426C323.32 78.071 320.765 77.5852 317.743 77.5852C313.676 77.5852 310.258 78.4669 307.487 80.2301C304.752 81.9934 303.403 84.2784 303.439 87.0852C303.403 89.4962 304.284 91.4574 306.084 92.9688C307.919 94.4801 310.941 95.7216 315.152 96.6932L329.294 99.7159C337.138 101.407 342.968 104.088 346.782 107.759C350.633 111.429 352.576 116.233 352.612 122.17C352.576 127.388 351.047 131.994 348.024 135.989C345.037 139.947 340.881 143.042 335.555 145.273C330.229 147.504 324.112 148.619 317.203 148.619C307.055 148.619 298.887 146.496 292.697 142.25C286.508 137.968 282.819 132.012 281.632 124.384L300.686 122.548C301.549 126.291 303.385 129.116 306.191 131.023C308.998 132.93 312.651 133.884 317.149 133.884C321.791 133.884 325.515 132.93 328.322 131.023C331.165 129.116 332.586 126.759 332.586 123.952C332.586 121.577 331.669 119.616 329.834 118.068C328.034 116.521 325.227 115.333 321.413 114.506L307.271 111.537C299.318 109.882 293.435 107.093 289.62 103.17C285.806 99.2121 283.917 94.2102 283.953 88.1648C283.917 83.0549 285.302 78.6288 288.109 74.8864C290.952 71.108 294.892 68.1932 299.93 66.142C305.004 64.0549 310.852 63.0114 317.473 63.0114C327.189 63.0114 334.835 65.0805 340.413 69.2188C346.027 73.357 349.499 78.9527 350.831 86.0057ZM402.525 64.0909V79.2045H354.863V64.0909H402.525ZM366.63 44.2273H386.17V122.062C386.17 124.689 386.565 126.705 387.357 128.108C388.185 129.475 389.264 130.411 390.596 130.915C391.927 131.419 393.403 131.67 395.022 131.67C396.245 131.67 397.361 131.58 398.368 131.401C399.412 131.221 400.204 131.059 400.743 130.915L404.036 146.19C402.993 146.55 401.499 146.946 399.556 147.378C397.649 147.81 395.31 148.062 392.539 148.134C387.645 148.277 383.237 147.54 379.314 145.92C375.392 144.265 372.279 141.71 369.976 138.256C367.709 134.801 366.594 130.483 366.63 125.301V44.2273ZM411.266 147V64.0909H430.212V77.9091H431.076C432.587 73.1231 435.178 69.4347 438.849 66.8438C442.555 64.2169 446.783 62.9034 451.533 62.9034C452.613 62.9034 453.818 62.9574 455.15 63.0653C456.517 63.1373 457.651 63.2633 458.55 63.4432V81.4176C457.723 81.1297 456.409 80.8778 454.61 80.6619C452.847 80.41 451.138 80.2841 449.482 80.2841C445.92 80.2841 442.717 81.0578 439.874 82.6051C437.067 84.1165 434.854 86.2216 433.235 88.9205C431.616 91.6193 430.806 94.732 430.806 98.2585V147H411.266ZM516.776 112.131V64.0909H536.315V147H517.369V132.264H516.506C514.635 136.906 511.558 140.703 507.276 143.653C503.029 146.604 497.794 148.08 491.568 148.08C486.135 148.08 481.331 146.874 477.156 144.463C473.018 142.016 469.779 138.472 467.44 133.83C465.101 129.152 463.932 123.502 463.932 116.881V64.0909H483.472V113.858C483.472 119.112 484.911 123.286 487.79 126.381C490.669 129.475 494.447 131.023 499.125 131.023C502.004 131.023 504.793 130.321 507.492 128.918C510.19 127.514 512.404 125.427 514.131 122.656C515.894 119.849 516.776 116.341 516.776 112.131Z" fill="white"/>
<path d="M549.672 36.4545H574.178L606.996 116.557H608.291L641.11 36.4545H665.615V147H646.399V71.054H645.374L614.823 146.676H600.465L569.914 70.892H568.888V147H549.672V36.4545ZM694.018 147H672.643L711.561 36.4545H736.282L775.254 147H753.879L724.353 59.125H723.49L694.018 147ZM694.72 103.656H753.015V119.741H694.72V103.656ZM798.947 36.4545L823.291 76.9375H824.155L848.606 36.4545H871.439L837.379 91.7273L871.979 147H848.768L824.155 106.787H823.291L798.677 147H775.575L810.498 91.7273L776.007 36.4545H798.947Z" fill="#F78400"/>
</svg>
